<?xml version="1.0" encoding="UTF-8"?>
<svg id="Layer_2" data-name="Layer 2" xmlns="http://www.w3.org/2000/svg" viewBox="0 0 440 82">
  <defs>
    <style>
      .cls-1, .cls-2, .cls-3 {
        fill: #001220;
      }

      .cls-2 {
        opacity: .39;
      }

      .cls-3 {
        opacity: .19;
      }
    </style>
  </defs>
  <g id="Layer_1-2" data-name="Layer 1">
    <path class="cls-3" d="M439.9,7.95c-8.73-.88-17.09-3.49-25.78-4.86-123.37-19.44-194.42,83.32-312.96,74.35-36.26-2.74-69.7-15.68-100.44-31.44h-.72v36h440V0h-.11c0,4.58,0,7.59,0,7.95Z"/>
    <path class="cls-2" d="M439.9,26.01c-8.73-.66-17.09-2.64-25.78-3.67-123.37-14.7-194.42,62.99-312.96,56.22-36.26-2.07-69.7-11.85-100.44-23.77h-.72v27.22h440V20h-.11c0,3.46,0,5.74,0,6.01Z"/>
    <path class="cls-1" d="M439.9,45.88c-8.73-.43-17.09-1.7-25.78-2.37-123.37-9.48-194.42,40.64-312.96,36.27-36.26-1.34-69.7-7.65-100.44-15.34h-.72v17.56h440v-40h-.11c0,2.23,0,3.7,0,3.88Z"/>
  </g>
</svg>