<?xml version="1.0" encoding="UTF-8" standalone="no"?>
<!DOCTYPE svg PUBLIC "-//W3C//DTD SVG 1.1//EN"
 "http://www.w3.org/Graphics/SVG/1.1/DTD/svg11.dtd">
<!-- Generated by graphviz version 2.40.1 (20161225.0304)
 -->
<!-- Title: %3 Pages: 1 -->
<svg width="134pt" height="131pt"
 viewBox="0.00 0.00 134.00 131.00" xmlns="http://www.w3.org/2000/svg" xmlns:xlink="http://www.w3.org/1999/xlink">
<g id="graph0" class="graph" transform="scale(1 1) rotate(0) translate(4 127)">
<title>%3</title>
<polygon fill="#ffffff" stroke="transparent" points="-4,4 -4,-127 130,-127 130,4 -4,4"/>
<!-- b -->
<g id="node1" class="node">
<title>b</title>
<polygon fill="none" stroke="#000000" points="54,-123 0,-123 0,-87 54,-87 54,-123"/>
<text text-anchor="middle" x="27" y="-101.3" font-family="Times,serif" font-size="14.00" fill="#000000">b</text>
</g>
<!-- c -->
<g id="node3" class="node">
<title>c</title>
<ellipse fill="none" stroke="#000000" cx="63" cy="-18" rx="27" ry="18"/>
<text text-anchor="middle" x="63" y="-14.3" font-family="Times,serif" font-size="14.00" fill="#000000">c</text>
</g>
<!-- b&#45;&gt;c -->
<g id="edge2" class="edge">
<title>b&#45;&gt;c</title>
<path fill="none" stroke="#000000" d="M34.4592,-86.9735C39.4973,-74.7983 46.2363,-58.5122 51.9009,-44.8228"/>
<polygon fill="#000000" stroke="#000000" points="55.2065,-45.9881 55.796,-35.4097 48.7383,-43.3116 55.2065,-45.9881"/>
<text text-anchor="middle" x="59.5" y="-57.8" font-family="Times,serif" font-size="14.00" fill="#000000">B&#45;C</text>
</g>
<!-- a -->
<g id="node2" class="node">
<title>a</title>
<ellipse fill="none" stroke="#000000" cx="99" cy="-105" rx="27" ry="18"/>
<text text-anchor="middle" x="99" y="-101.3" font-family="Times,serif" font-size="14.00" fill="#000000">a</text>
</g>
<!-- a&#45;&gt;c -->
<g id="edge1" class="edge">
<title>a&#45;&gt;c</title>
<path fill="none" stroke="#000000" stroke-dasharray="5,2" d="M91.7149,-87.3943C86.6889,-75.2482 79.9107,-58.8674 74.2018,-45.0711"/>
<polygon fill="#000000" stroke="#000000" points="77.3319,-43.4815 70.2743,-35.5796 70.8638,-46.158 77.3319,-43.4815"/>
<text text-anchor="middle" x="95" y="-57.8" font-family="Times,serif" font-size="14.00" fill="#000000">A&#45;C</text>
</g>
</g>
</svg>
